<svg width="438" height="117" viewBox="0 0 438 117" fill="none" xmlns="http://www.w3.org/2000/svg">
<path d="M81.6179 104.102C81.2394 104.102 80.8766 104.102 80.4981 104.086C72.8647 103.754 66.0514 100.039 62.2978 94.1747C54.7905 82.4454 55.6422 65.7682 64.4427 51.6993C65.4678 50.0553 66.5718 48.5062 67.7389 47.0677C65.4048 45.2656 63.181 43.3213 61.0203 41.3295C52.756 52.1103 47.8983 65.8315 47.2832 80.2955C46.9836 87.3616 48.7815 97.9053 48.7973 98.0001C49.0812 99.6758 48.2453 101.351 46.7155 102.126C45.1856 102.901 43.3561 102.569 42.1733 101.336C41.0377 100.134 14.368 71.9174 8.23291 59.5084C5.0786 53.1379 3.81688 44.9178 4.8578 37.5198C6.87656 23.2455 18.6737 12.7333 32.3318 13.1285C37.8361 13.2708 42.7726 15.0571 47.8826 18.7245C51.6993 21.4592 55.5791 25.2688 59.6955 29.2998C59.9793 29.5844 60.2632 29.8531 60.5471 30.1376C70.2151 20.4633 81.8387 15.2784 93.0838 15.7526C104.108 16.2268 111.726 22.6764 115.18 28.5569C122.529 41.0924 119.375 54.197 115.306 65.373C114.58 67.3806 112.357 68.4239 110.338 67.6809C108.335 66.9538 107.294 64.7249 108.035 62.7015C111.663 52.7585 114.218 42.2147 108.508 32.4772C108.004 31.6077 103.209 23.941 92.7526 23.4984C83.7313 23.1032 74.2368 27.4345 66.146 35.4964C68.4329 37.5989 70.7986 39.6381 73.2432 41.4876C79.0629 36.6662 85.687 34.3267 92.0271 35.0854C96.1593 35.5913 99.7236 38.0573 101.569 41.6931C103.225 44.9653 103.178 48.6327 101.427 51.731C98.5565 56.8527 91.9956 57.564 86.8225 56.5207C82.2803 55.6039 78.0851 53.8018 74.158 51.4622C73.054 52.7743 71.9973 54.2286 71.0194 55.8094C65.5309 64.5668 61.6669 78.778 68.8272 89.9856C71.1929 93.6846 75.7982 96.119 80.8451 96.3403C85.7343 96.5616 90.0241 94.7438 92.6107 91.3609C93.9197 89.6695 96.3485 89.3533 98.0361 90.6654C99.7236 91.9774 100.039 94.4118 98.73 96.1032C94.7871 101.225 88.5889 104.118 81.6179 104.118V104.102ZM31.6221 20.8743C22.1276 20.8743 13.958 28.4146 12.5385 38.6106C11.7026 44.5226 12.6963 51.0512 15.1882 56.0781C18.8314 63.4445 31.3067 77.8769 39.7287 87.2351C39.5552 84.7691 39.4763 82.2557 39.571 79.9794C40.2807 63.6342 45.8796 48.111 55.4214 35.9549C55.0429 35.5755 54.6643 35.2119 54.2858 34.8483C50.3902 31.0229 46.7155 27.4187 43.3877 25.0317C39.5394 22.2812 36.0697 21.0008 32.1268 20.8901C31.9691 20.8901 31.7956 20.8901 31.6379 20.8901L31.6221 20.8743ZM80.1669 45.9295C82.8008 47.3048 85.5292 48.3481 88.3523 48.9172C91.2543 49.5021 94.0459 49.0753 94.6925 47.9213C95.2918 46.8622 95.0079 45.8505 94.6767 45.1866C94.1563 44.1749 92.9576 43.0051 91.1124 42.7838C87.5638 42.357 83.7786 43.4951 80.1827 45.9295H80.1669Z" fill="black"/>
<path d="M109.411 84.4161C112.01 81.9746 112.148 77.8882 109.718 75.2891C107.288 72.69 103.21 72.5623 100.611 75.0039C98.0114 77.4455 97.874 81.5318 100.304 84.1309C102.734 86.73 106.811 86.8577 109.411 84.4161Z" fill="#0061F2"/>
<path d="M174.543 28.0881L162.61 59.9381H156.579L144.598 28.0881H150.175L159.594 54.5756L169.063 28.0881H174.543Z" fill="black"/>
<path d="M179.147 30.3793C178.499 29.7456 178.19 28.9493 178.19 27.9906C178.19 27.0318 178.515 26.2518 179.147 25.6018C179.796 24.9681 180.574 24.6431 181.53 24.6431C182.487 24.6431 183.216 24.9681 183.865 25.6018C184.497 26.2518 184.821 27.0318 184.821 27.9906C184.821 28.9493 184.497 29.7293 183.865 30.3793C183.216 31.0293 182.454 31.3381 181.53 31.3381C180.606 31.3381 179.796 31.0131 179.147 30.3793ZM184.092 34.6856V59.9381H178.888V34.6856H184.092Z" fill="black"/>
<path d="M200.694 55.2581L207.827 34.6856H213.356L203.758 59.9381H197.532L187.983 34.6856H193.56L200.694 55.2581Z" fill="black"/>
<path d="M240.091 34.6856V59.9381H234.887V56.9643C234.06 58.0043 232.99 58.8168 231.66 59.4181C230.331 60.0193 228.92 60.3118 227.429 60.3118C225.451 60.3118 223.667 59.9056 222.095 59.0768C220.522 58.2481 219.29 57.0293 218.398 55.4043C217.507 53.7793 217.053 51.8293 217.053 49.5381V34.6856H222.224V48.7581C222.224 51.0168 222.792 52.7556 223.911 53.9581C225.045 55.1606 226.569 55.7618 228.531 55.7618C230.493 55.7618 232.033 55.1606 233.168 53.9581C234.319 52.7556 234.887 51.0168 234.887 48.7581V34.6856H240.091Z" fill="black"/>
<path d="M250.775 59.2718C249.203 58.5568 247.97 57.5818 247.046 56.3468C246.122 55.1118 245.652 53.7306 245.587 52.2031H250.986C251.083 53.2756 251.586 54.1693 252.51 54.8843C253.434 55.5993 254.601 55.9568 256.012 55.9568C257.422 55.9568 258.606 55.6806 259.417 55.1118C260.227 54.5431 260.633 53.8281 260.633 52.9343C260.633 51.9918 260.179 51.2768 259.287 50.8218C258.395 50.3668 256.969 49.8631 255.007 49.3106C253.11 48.7906 251.586 48.2868 250.386 47.7993C249.186 47.3118 248.165 46.5643 247.306 45.5568C246.43 44.5493 246.009 43.2168 246.009 41.5756C246.009 40.2268 246.398 39.0081 247.192 37.8868C247.987 36.7656 249.122 35.8881 250.597 35.2543C252.072 34.6206 253.775 34.2956 255.688 34.2956C258.557 34.2956 260.86 35.0268 262.611 36.4731C264.362 37.9193 265.302 39.9018 265.415 42.4043H260.211C260.114 41.2668 259.66 40.3731 258.833 39.7068C258.006 39.0406 256.904 38.6993 255.493 38.6993C254.083 38.6993 253.077 38.9593 252.332 39.4793C251.602 39.9993 251.229 40.6818 251.229 41.5431C251.229 42.2093 251.472 42.7781 251.959 43.2331C252.445 43.6881 253.045 44.0456 253.742 44.3056C254.439 44.5656 255.477 44.8906 256.855 45.2968C258.687 45.7843 260.179 46.2881 261.362 46.7918C262.53 47.2956 263.551 48.0431 264.41 49.0181C265.269 49.9931 265.707 51.2931 265.74 52.9181C265.74 54.3481 265.351 55.6318 264.556 56.7693C263.762 57.9068 262.643 58.7843 261.2 59.4181C259.757 60.0681 258.055 60.3768 256.109 60.3768C254.164 60.3768 252.348 60.0193 250.775 59.3043V59.2718Z" fill="black"/>
<path d="M271.803 35.5631C273.246 33.0931 275.224 31.1593 277.705 29.7618C280.185 28.3643 282.909 27.6818 285.86 27.6818C289.248 27.6818 292.248 28.5106 294.89 30.1843C297.533 31.8418 299.446 34.2143 300.63 37.2693H294.371C293.545 35.5956 292.41 34.3443 290.934 33.5156C289.459 32.6868 287.773 32.2806 285.86 32.2806C283.752 32.2806 281.888 32.7518 280.234 33.7106C278.58 34.6693 277.299 36.0181 276.375 37.7893C275.451 39.5606 274.981 41.6243 274.981 43.9806C274.981 46.3368 275.451 48.4006 276.375 50.1718C277.299 51.9431 278.596 53.3081 280.234 54.2668C281.888 55.2256 283.752 55.7131 285.86 55.7131C287.773 55.7131 289.475 55.3068 290.934 54.4781C292.394 53.6493 293.545 52.3981 294.371 50.7243H300.63C299.446 53.7793 297.533 56.1356 294.89 57.7768C292.248 59.4181 289.248 60.2468 285.86 60.2468C282.877 60.2468 280.153 59.5481 277.672 58.1668C275.208 56.7856 273.246 54.8518 271.803 52.3656C270.36 49.8956 269.631 47.1006 269.631 43.9806C269.631 40.8606 270.36 38.0656 271.803 35.5956V35.5631Z" fill="black"/>
<path d="M306.547 40.4543C307.601 38.5043 309.028 36.9768 310.844 35.8881C312.66 34.7993 314.654 34.2631 316.859 34.2631C318.837 34.2631 320.571 34.6531 322.047 35.4331C323.522 36.2131 324.706 37.1881 325.597 38.3418V34.6693H330.85V59.9218H325.597V56.1681C324.706 57.3543 323.506 58.3456 321.982 59.1418C320.458 59.9381 318.723 60.3281 316.778 60.3281C314.621 60.3281 312.627 59.7756 310.828 58.6543C309.028 57.5331 307.601 55.9893 306.547 53.9743C305.493 51.9756 304.975 49.7006 304.975 47.1656C304.975 44.6306 305.493 42.3881 306.547 40.4218V40.4543ZM324.511 42.7456C323.798 41.4618 322.857 40.4868 321.706 39.8206C320.555 39.1543 319.291 38.8131 317.961 38.8131C316.632 38.8131 315.367 39.1381 314.216 39.8043C313.065 40.4543 312.125 41.4293 311.411 42.6968C310.698 43.9643 310.341 45.4756 310.341 47.2143C310.341 48.9531 310.698 50.4806 311.411 51.7968C312.125 53.1131 313.065 54.1043 314.248 54.8031C315.416 55.4856 316.664 55.8268 317.977 55.8268C319.291 55.8268 320.571 55.4856 321.723 54.8193C322.874 54.1531 323.814 53.1618 324.527 51.8618C325.241 50.5618 325.597 49.0506 325.597 47.2956C325.597 45.5406 325.241 44.0456 324.527 42.7618L324.511 42.7456Z" fill="black"/>
<path d="M345.961 35.3518C347.225 34.6368 348.733 34.2793 350.468 34.2793V39.6906H349.138C347.096 39.6906 345.555 40.2106 344.501 41.2506C343.448 42.2906 342.929 44.0943 342.929 46.6618V59.9543H337.725V34.7018H342.929V38.3743C343.691 37.0906 344.712 36.0831 345.977 35.3681L345.961 35.3518Z" fill="black"/>
<path d="M355.105 40.4543C356.159 38.5043 357.585 36.9768 359.401 35.8881C361.217 34.7993 363.227 34.2631 365.465 34.2631C367.118 34.2631 368.74 34.6206 370.329 35.3356C371.934 36.0506 373.198 37.0093 374.139 38.1956V26.0081H379.392V59.9218H374.139V56.1193C373.279 57.3381 372.112 58.3456 370.588 59.1418C369.064 59.9381 367.345 60.3281 365.4 60.3281C363.211 60.3281 361.201 59.7756 359.385 58.6543C357.569 57.5331 356.142 55.9893 355.089 53.9743C354.035 51.9756 353.516 49.7006 353.516 47.1656C353.516 44.6306 354.035 42.3881 355.089 40.4218L355.105 40.4543ZM373.069 42.7456C372.355 41.4618 371.415 40.4868 370.264 39.8206C369.113 39.1543 367.848 38.8131 366.519 38.8131C365.189 38.8131 363.924 39.1381 362.773 39.8043C361.622 40.4543 360.682 41.4293 359.969 42.6968C359.255 43.9643 358.899 45.4756 358.899 47.2143C358.899 48.9531 359.255 50.4806 359.969 51.7968C360.682 53.1131 361.622 54.1043 362.806 54.8031C363.973 55.4856 365.222 55.8268 366.535 55.8268C367.848 55.8268 369.129 55.4856 370.28 54.8193C371.431 54.1531 372.371 53.1618 373.085 51.8618C373.798 50.5618 374.155 49.0506 374.155 47.2956C374.155 45.5406 373.798 44.0456 373.085 42.7618L373.069 42.7456Z" fill="black"/>
<path d="M386.541 30.3793C385.893 29.7456 385.585 28.9493 385.585 27.9906C385.585 27.0318 385.909 26.2518 386.541 25.6018C387.19 24.9681 387.968 24.6431 388.925 24.6431C389.881 24.6431 390.611 24.9681 391.259 25.6018C391.892 26.2518 392.216 27.0318 392.216 27.9906C392.216 28.9493 391.892 29.7293 391.259 30.3793C390.611 31.0293 389.849 31.3381 388.925 31.3381C388 31.3381 387.19 31.0131 386.541 30.3793ZM391.47 34.6856V59.9381H386.266V34.6856H391.47Z" fill="black"/>
<path d="M402.819 58.7193C400.906 57.6306 399.398 56.1031 398.296 54.1368C397.193 52.1706 396.642 49.8793 396.642 47.2793C396.642 44.6793 397.209 42.4368 398.328 40.4543C399.463 38.4718 400.987 36.9443 402.949 35.8718C404.894 34.7993 407.083 34.2631 409.482 34.2631C411.882 34.2631 414.071 34.7993 416.016 35.8718C417.962 36.9443 419.502 38.4718 420.637 40.4543C421.772 42.4368 422.323 44.7118 422.323 47.2793C422.323 49.8468 421.739 52.1218 420.588 54.1043C419.437 56.0868 417.848 57.6306 415.854 58.7031C413.86 59.7918 411.655 60.3281 409.255 60.3281C406.856 60.3281 404.732 59.7918 402.803 58.7031L402.819 58.7193ZM413.033 54.8518C414.2 54.2018 415.157 53.2431 415.887 51.9593C416.616 50.6756 416.989 49.1156 416.989 47.2793C416.989 45.4431 416.632 43.8993 415.935 42.6318C415.238 41.3643 414.298 40.4056 413.147 39.7718C411.995 39.1381 410.731 38.8131 409.401 38.8131C408.072 38.8131 406.824 39.1381 405.672 39.7718C404.521 40.4056 403.63 41.3643 402.949 42.6318C402.284 43.8993 401.944 45.4431 401.944 47.2793C401.944 49.9931 402.641 52.1056 404.019 53.5843C405.397 55.0631 407.148 55.8106 409.255 55.8106C410.601 55.8106 411.85 55.4856 413.033 54.8518Z" fill="black"/>
<path d="M146.04 81.8206C146.997 80.1143 148.31 78.7818 149.964 77.8231C151.618 76.8643 153.466 76.3768 155.493 76.3768C157.876 76.3768 159.951 76.9456 161.718 78.0993C163.485 79.2531 164.782 80.8781 165.593 82.9906H162.188C161.589 81.6743 160.713 80.6668 159.578 79.9518C158.443 79.2368 157.081 78.8793 155.493 78.8793C153.904 78.8793 152.607 79.2368 151.391 79.9518C150.175 80.6668 149.234 81.6743 148.537 82.9743C147.856 84.2743 147.5 85.8181 147.5 87.5731C147.5 89.3281 147.84 90.8231 148.537 92.1393C149.218 93.4393 150.175 94.4631 151.391 95.1618C152.607 95.8768 153.969 96.2343 155.493 96.2343C157.017 96.2343 158.443 95.8931 159.578 95.1781C160.713 94.4793 161.589 93.4718 162.188 92.1556H165.593C164.782 94.2518 163.485 95.8606 161.718 96.9981C159.951 98.1356 157.876 98.7043 155.493 98.7043C153.466 98.7043 151.634 98.2331 149.964 97.2743C148.31 96.3318 146.997 94.9993 146.04 93.3093C145.084 91.6193 144.598 89.7018 144.598 87.5731C144.598 85.4443 145.084 83.5268 146.04 81.8206Z" fill="#0061F2"/>
<path d="M172.921 97.6968C171.624 96.9656 170.603 95.9256 169.857 94.5768C169.111 93.2281 168.738 91.6681 168.738 89.8806C168.738 88.0931 169.111 86.5656 169.873 85.2168C170.635 83.8681 171.673 82.8281 172.986 82.1131C174.299 81.3981 175.775 81.0243 177.396 81.0243C179.017 81.0243 180.493 81.3818 181.806 82.1131C183.119 82.8281 184.157 83.8681 184.919 85.2006C185.681 86.5331 186.054 88.0931 186.054 89.8806C186.054 91.6681 185.665 93.2281 184.886 94.5768C184.108 95.9256 183.038 96.9656 181.709 97.6968C180.379 98.4281 178.888 98.8018 177.266 98.8018C175.645 98.8018 174.202 98.4443 172.905 97.6968H172.921ZM180.168 95.5681C181.06 95.0806 181.79 94.3656 182.341 93.4068C182.892 92.4481 183.168 91.2781 183.168 89.8968C183.168 88.5156 182.892 87.3456 182.357 86.3868C181.822 85.4281 181.109 84.7131 180.233 84.2418C179.358 83.7706 178.401 83.5431 177.38 83.5431C176.358 83.5431 175.386 83.7706 174.51 84.2418C173.651 84.7131 172.954 85.4281 172.435 86.3868C171.916 87.3456 171.657 88.5156 171.657 89.8968C171.657 91.2781 171.916 92.4806 172.419 93.4393C172.921 94.3981 173.618 95.1131 174.462 95.5843C175.321 96.0556 176.261 96.2831 177.283 96.2831C178.304 96.2831 179.261 96.0393 180.168 95.5681Z" fill="#0061F2"/>
<path d="M203.272 82.9093C204.569 84.1768 205.217 85.9968 205.217 88.3856V98.5093H202.396V88.7918C202.396 87.0856 201.975 85.7693 201.115 84.8593C200.256 83.9493 199.089 83.4943 197.613 83.4943C196.138 83.4943 194.922 83.9656 194.03 84.9081C193.139 85.8506 192.701 87.2156 192.701 89.0193V98.5256H189.847V81.3331H192.701V83.7706C193.268 82.8931 194.03 82.2106 195.003 81.7393C195.976 81.2518 197.046 81.0243 198.213 81.0243C200.305 81.0243 201.991 81.6581 203.288 82.9256L203.272 82.9093Z" fill="#0061F2"/>
<path d="M223.295 82.9093C224.592 84.1768 225.24 85.9968 225.24 88.3856V98.5093H222.419V88.7918C222.419 87.0856 221.997 85.7693 221.138 84.8593C220.279 83.9493 219.112 83.4943 217.636 83.4943C216.161 83.4943 214.945 83.9656 214.053 84.9081C213.161 85.8506 212.724 87.2156 212.724 89.0193V98.5256H209.87V81.3331H212.724V83.7706C213.291 82.8931 214.053 82.2106 215.026 81.7393C215.999 81.2518 217.069 81.0243 218.236 81.0243C220.328 81.0243 222.014 81.6581 223.311 82.9256L223.295 82.9093Z" fill="#0061F2"/>
<path d="M245.441 90.9856H231.741C231.839 92.6756 232.422 94.0081 233.476 94.9506C234.53 95.8931 235.811 96.3806 237.302 96.3806C238.535 96.3806 239.556 96.0881 240.383 95.5193C241.21 94.9506 241.793 94.1706 242.118 93.2118H245.182C244.728 94.8693 243.804 96.2018 242.426 97.2418C241.048 98.2818 239.345 98.8018 237.286 98.8018C235.665 98.8018 234.206 98.4443 232.925 97.6968C231.644 96.9656 230.639 95.9256 229.909 94.5768C229.18 93.2281 228.807 91.6681 228.807 89.8806C228.807 88.0931 229.164 86.5493 229.877 85.2006C230.59 83.8681 231.579 82.8281 232.86 82.1131C234.141 81.3981 235.616 81.0243 237.286 81.0243C238.956 81.0243 240.35 81.3818 241.599 82.0968C242.847 82.8118 243.82 83.7868 244.501 85.0218C245.182 86.2568 245.522 87.6706 245.522 89.2468C245.522 89.7831 245.49 90.3681 245.425 90.9693L245.441 90.9856ZM241.874 85.8668C241.388 85.0868 240.74 84.4856 239.913 84.0793C239.086 83.6731 238.178 83.4618 237.173 83.4618C235.73 83.4618 234.514 83.9168 233.492 84.8431C232.487 85.7693 231.904 87.0368 231.758 88.6618H242.588C242.588 87.5731 242.345 86.6468 241.874 85.8506V85.8668Z" fill="#0061F2"/>
<path d="M249.3 85.2331C250.013 83.9006 250.986 82.8768 252.251 82.1456C253.515 81.4143 254.958 81.0406 256.579 81.0406C258.687 81.0406 260.422 81.5606 261.784 82.5843C263.146 83.6081 264.054 85.0381 264.491 86.8418H261.427C261.135 85.8018 260.568 84.9731 259.725 84.3718C258.882 83.7706 257.828 83.4618 256.579 83.4618C254.958 83.4618 253.645 84.0143 252.64 85.1356C251.634 86.2568 251.132 87.8331 251.132 89.8806C251.132 91.9281 251.634 93.5531 252.64 94.6743C253.645 95.7956 254.958 96.3643 256.579 96.3643C257.828 96.3643 258.882 96.0718 259.708 95.4868C260.535 94.9018 261.119 94.0568 261.427 92.9843H264.491C264.037 94.7393 263.113 96.1531 261.735 97.2093C260.357 98.2656 258.638 98.7856 256.579 98.7856C254.958 98.7856 253.515 98.4281 252.251 97.6806C250.986 96.9493 249.997 95.9093 249.3 94.5768C248.586 93.2443 248.23 91.6681 248.23 89.8643C248.23 88.0606 248.586 86.5331 249.3 85.2006V85.2331Z" fill="#0061F2"/>
<path d="M271.755 83.6893V93.8131C271.755 94.6418 271.933 95.2431 272.29 95.5843C272.646 95.9256 273.262 96.1043 274.138 96.1043H276.229V98.5256H273.668C272.079 98.5256 270.895 98.1681 270.101 97.4206C269.306 96.6893 268.917 95.4868 268.917 93.8131V83.6893H266.696V81.3331H268.917V77.0106H271.771V81.3331H276.246V83.6893H271.771H271.755Z" fill="#0061F2"/>
</svg>
