<svg width="52" height="42" viewBox="0 0 52 42" fill="none" xmlns="http://www.w3.org/2000/svg">
    <path d="M34.8412 41.9927C34.6702 41.9927 34.5063 41.9927 34.3353 41.9854C30.8865 41.8322 27.8084 40.1177 26.1125 37.4109C22.7208 31.9974 23.1056 24.3002 27.0816 17.8069C27.5447 17.0481 28.0435 16.3331 28.5708 15.6692C27.5162 14.8375 26.5115 13.9401 25.5353 13.0208C21.8016 17.9966 19.607 24.3294 19.3291 31.0051C19.1937 34.2664 20.006 39.1327 20.0131 39.1765C20.1414 39.9499 19.7637 40.7232 19.0726 41.0807C18.3814 41.4382 17.5548 41.285 17.0204 40.7159C16.5074 40.1614 4.45829 27.1383 1.68649 21.4111C0.261407 18.4708 -0.308628 14.677 0.161651 11.2625C1.07371 4.67433 6.40354 -0.177421 12.5742 0.00497622C15.0609 0.070639 17.2912 0.895072 19.5998 2.58771C21.3242 3.8499 23.0771 5.6082 24.9368 7.46865C25.0651 7.59998 25.1933 7.72401 25.3216 7.85533C29.6895 3.39026 34.9409 0.997214 40.0214 1.21609C45.002 1.43497 48.4436 4.41168 50.0041 7.12574C53.3246 12.9114 51.8995 18.9596 50.0611 24.1178C49.7333 25.0444 48.7286 25.5259 47.8166 25.183C46.9117 24.8474 46.4414 23.8187 46.7763 22.8848C48.4151 18.2957 49.5694 13.4294 46.99 8.93512C46.762 8.53385 44.5959 4.99535 39.8717 4.79107C35.796 4.60867 31.5065 6.60774 27.8511 10.3286C28.8843 11.299 29.9531 12.2401 31.0576 13.0938C33.6868 10.8685 36.6795 9.78874 39.544 10.1389C41.4108 10.3724 43.0212 11.5106 43.8548 13.1886C44.603 14.6989 44.5816 16.3915 43.7907 17.8215C42.4939 20.1854 39.5297 20.5137 37.1926 20.0321C35.1404 19.609 33.2451 18.7772 31.4708 17.6975C30.972 18.303 30.4946 18.9742 30.0529 19.7038C27.5732 23.7457 25.8275 30.3047 29.0624 35.4775C30.1312 37.1847 32.2119 38.3083 34.492 38.4104C36.7009 38.5126 38.639 37.6735 39.8076 36.1122C40.399 35.3316 41.4963 35.1857 42.2587 35.7912C43.0212 36.3968 43.1637 37.5203 42.5723 38.301C40.7909 40.6649 37.9906 42 34.8412 42V41.9927ZM12.2535 3.57995C7.96401 3.57995 4.27303 7.06008 3.63174 11.7659C3.25409 14.4946 3.70299 17.5078 4.82881 19.8279C6.47479 23.2277 12.111 29.8889 15.916 34.208C15.8376 33.0699 15.802 31.9098 15.8447 30.8592C16.1654 23.3153 18.6949 16.1507 23.0058 10.5402C22.8348 10.3651 22.6638 10.1973 22.4928 10.0295C20.7328 8.2639 19.0726 6.60044 17.5691 5.49877C15.8305 4.22928 14.2629 3.63832 12.4815 3.58725C12.4103 3.58725 12.3319 3.58725 12.2606 3.58725L12.2535 3.57995ZM34.1856 15.1439C35.3756 15.7786 36.6083 16.2602 37.8837 16.5228C39.1948 16.7928 40.456 16.5958 40.7482 16.0632C41.0189 15.5744 40.8907 15.1074 40.741 14.801C40.5059 14.3341 39.9644 13.7942 39.1307 13.692C37.5275 13.495 35.8173 14.0203 34.1927 15.1439H34.1856Z" fill="black"/>
    <path d="M47.3978 32.9067C48.5723 31.7798 48.6343 29.8939 47.5365 28.6943C46.4386 27.4947 44.5965 27.4357 43.4221 28.5626C42.2476 29.6895 42.1855 31.5755 43.2834 32.7751C44.3813 33.9747 46.2234 34.0336 47.3978 32.9067Z" fill="#0061F2"/>
</svg>
